<svg xmlns="http://www.w3.org/2000/svg" xmlns:xlink="http://www.w3.org/1999/xlink" width="38.92mm" height="14.29mm" viewBox="0 0 110.31 40.51">
  <defs>
    <linearGradient id="Esmeralda" x1="110.31" y1="20.09" x2="72.19" y2="20.09" gradientUnits="userSpaceOnUse">
      <stop offset="0" stop-color="#00793a"/>
      <stop offset="0.09" stop-color="#047b3b"/>
      <stop offset="0.17" stop-color="#10813f"/>
      <stop offset="0.26" stop-color="#248c46"/>
      <stop offset="0.34" stop-color="#409b4f"/>
      <stop offset="0.43" stop-color="#63ae5b"/>
      <stop offset="0.49" stop-color="#81be65"/>
      <stop offset="0.55" stop-color="#64af5b"/>
      <stop offset="0.64" stop-color="#409b4f"/>
      <stop offset="0.73" stop-color="#248c46"/>
      <stop offset="0.82" stop-color="#10823f"/>
      <stop offset="0.91" stop-color="#047b3b"/>
      <stop offset="1" stop-color="#00793a"/>
    </linearGradient>
    <linearGradient id="Esmeralda-2" data-name="Esmeralda" x1="37.8" y1="20.78" x2="0" y2="20.78" xlink:href="#Esmeralda"/>
    <linearGradient id="Esmeralda-3" data-name="Esmeralda" x1="60.02" y1="21.17" x2="31.61" y2="21.17" xlink:href="#Esmeralda"/>
    <linearGradient id="Esmeralda-4" data-name="Esmeralda" x1="91.11" y1="20.15" x2="60.26" y2="20.15" xlink:href="#Esmeralda"/>
  </defs>
  <g id="Capa_2" data-name="Capa 2">
    <g id="fondo_color_solido" data-name="fondo color solido">
      <g>
        <path d="M73,39.37,91.26,1.42c6.13,12.74,12.12,25.18,18.26,37.92-3.17,0-6,0-8.91-.05-.36,0-.77-.76-1-1.24Q95.8,30.22,92,22.36l-.74-1.5c-.35.64-.62,1.1-.84,1.56C88,27.61,85.43,32.79,83,38a2.08,2.08,0,0,1-2.25,1.4C78.27,39.31,75.79,39.37,73,39.37Z" fill="#fff" stroke-miterlimit="10" stroke="url(#Esmeralda)"/>
        <path d="M18.87,21.28l-3.63,7.45c-1.61,3.32-3.23,6.63-4.79,10a1.78,1.78,0,0,1-1.89,1.22c-2.47-.06-4.94,0-7.77,0L18.9,2.21,37,39.89a44.33,44.33,0,0,0-5.69,0c-2.57.35-3.87-.63-4.88-3-2-4.67-4.35-9.19-6.56-13.77C19.61,22.61,19.3,22.08,18.87,21.28Z" fill="#fff" stroke-miterlimit="10" stroke="url(#Esmeralda-2)"/>
        <path d="M32.21,2.32h8.57V4.39c0,8.67,0,17.34,0,26,0,1.53.45,1.91,1.93,1.89,5-.09,10,0,15,0h1.89v7.61c-.51,0-1,.11-1.41.11-5.92,0-11.84,0-17.76,0a1.74,1.74,0,0,1-1.89-1.17c-1.88-4.05-3.86-8-5.78-12.07a4.69,4.69,0,0,1-.54-1.91c0-7.22,0-14.44,0-21.66C32.12,3,32.17,2.7,32.21,2.32Z" fill="#fff" stroke-miterlimit="10" stroke="url(#Esmeralda-3)"/>
        <path d="M68.31,8.06H79.67l6.75-.15c.72-1.22,3.19-6.36,3.82-7.41H60.76V39.78l3.44,0c1.8-.17,2.25,0,4.13-.08l0-2.64V20.66h13c2.12-5.25,3.18-6.94,3.34-7.56H68.31Z" fill="#fff" stroke-miterlimit="10" stroke="url(#Esmeralda-4)"/>
      </g>
    </g>
  </g>
</svg>
