<svg id="Capa_1" data-name="Capa 1" xmlns="http://www.w3.org/2000/svg" viewBox="0 0 32.73 39.37"><g opacity="0.5"><path d="M45.55,50.1V65.71a5.68,5.68,0,0,1-.71,3.07,1.52,1.52,0,0,1-2.19.77l-6-2.35A3.76,3.76,0,0,1,34,63.37Q34,50,34,36.68a3.64,3.64,0,0,1,2.42-3.63c2.13-.88,4.27-1.7,6.41-2.52a1.46,1.46,0,0,1,2,.74,5.79,5.79,0,0,1,.75,3.15Zm-2-.17a1.26,1.26,0,0,0-2.51,0,1.28,1.28,0,0,0,1.25,1.25A1.26,1.26,0,0,0,43.55,49.93Z" transform="translate(-33.96 -30.38)" fill-rule="evenodd"/><path d="M66.69,50.17,60,56.83V53.6H47.67V46.53H59.91V43.38Z" transform="translate(-33.96 -30.38)" fill-rule="evenodd"/><path d="M57.39,44.14h-2V35.36H47.66V33.28h9.73Z" transform="translate(-33.96 -30.38)" fill-rule="evenodd"/><path d="M57.4,66.88H47.67V64.82h7.65V55.93H57.4Z" transform="translate(-33.96 -30.38)" fill-rule="evenodd"/></g></svg>