<svg id="Capa_1" data-name="Capa 1" xmlns="http://www.w3.org/2000/svg" viewBox="0 0 32.83 32.84"><g opacity="0.5"><path d="M44.78,66.49a10.85,10.85,0,1,1,10.81-10.8A10.82,10.82,0,0,1,44.78,66.49Zm8.87-10.88a8.9,8.9,0,1,0-8.81,9A8.92,8.92,0,0,0,53.65,55.61Z" transform="translate(-33.91 -33.65)" fill-rule="evenodd"/><path d="M50.11,66.49a3.41,3.41,0,0,1,2.33-.94c3.3.06,6.61,0,9.91,0a3.16,3.16,0,0,0,3.46-3.47V42.51c0-.8,0-.8-.82-.8s-1.58,0-2.37,0a4,4,0,0,1-3.94-3.76c-.06-.95,0-1.9,0-2.85,0-.37-.11-.52-.51-.52-4,0-7.95,0-11.93,0a3.08,3.08,0,0,0-3.1,3.16c0,1.78,0,3.56,0,5.34v.68l-.87.19c0-.23,0-.4,0-.57,0-1.88,0-3.76,0-5.64a4,4,0,0,1,4.09-4.09c4.16,0,8.31,0,12.46,0a1.56,1.56,0,0,1,1,.4q3.33,3.26,6.59,6.58a1.56,1.56,0,0,1,.4,1q0,10.35,0,20.71a4,4,0,0,1-4.1,4.15Zm9.56-31.08a25.19,25.19,0,0,0,0,2.89,2.72,2.72,0,0,0,1.56,2.11c1.18.61,2.44.3,3.71.35Z" transform="translate(-33.91 -33.65)" fill-rule="evenodd"/><path d="M62.09,46.11v.81l-.73,0c-2.55,0-5.1,0-7.65,0A2.09,2.09,0,0,1,52,46.11Z" transform="translate(-33.91 -33.65)" fill-rule="evenodd"/><path d="M55.34,61.35a.93.93,0,0,1,1.1-.91c1.65.06,3.32,0,5,0h.66v.89Z" transform="translate(-33.91 -33.65)" fill-rule="evenodd"/><path d="M62.1,50.92v.86H58.19a13.43,13.43,0,0,0-1.42,0c-.62.06-.92-.2-1-.87Z" transform="translate(-33.91 -33.65)" fill-rule="evenodd"/><path d="M56.68,56.51c0-.31,0-.56,0-.84h5.37v.84Z" transform="translate(-33.91 -33.65)" fill-rule="evenodd"/><path d="M44.88,52.46c0,.74,0,1.47,0,2.2a.86.86,0,0,0,.54.92c1.18.65,2.33,1.34,3.49,2l.57.32c.38.22.55.54.32.94s-.62.36-1,.15l-3.32-1.94c-.31-.18-.55-.35-.93,0a.57.57,0,0,1-.92-.49.91.91,0,0,0-.44-.82c-.49-.31-.41-.82.06-1.15a.82.82,0,0,0,.34-.57c0-1.18,0-2.37,0-3.55v-.42c0-.45.15-.81.65-.8s.62.36.62.79Z" transform="translate(-33.91 -33.65)" fill-rule="evenodd"/></g></svg>