<svg id="Capa_1" data-name="Capa 1" xmlns="http://www.w3.org/2000/svg" viewBox="0 0 34.87 33.21"><g opacity="0.5"><path d="M67.76,50.9a.13.13,0,0,1,0-.06h0a.29.29,0,0,0,0-.09,1.16,1.16,0,0,1-.16-.21h0L51,34c-.6-.61-.89-.61-1.49,0L33.35,50.16c-.13.13-.25.28-.4.45l-.06.11c0,.12,0,.23,0,.34l.05.1c.57.55.89.53,1.45,0L48.29,37.24c.65-.65,1.28-1.32,1.92-2l.34.3,15.51,15.5a1.56,1.56,0,0,0,.72.47c.25,0,.53-.15.8-.24l0,0,0,0a1.34,1.34,0,0,1,.07-.18A.5.5,0,0,1,67.76,50.9Z" transform="translate(-32.89 -33.54)" fill="#1d1d1b"/><path d="M53.16,56.66H47.37v2.43q0,3.33,0,6.67c0,.75-.23,1-1,1H38.22c-.7,0-.95-.25-.95-.94v-14a.82.82,0,0,1,.4-.83c.51-.25,1,.1,1,.72,0,1.21,0,2.42,0,3.63q0,4.8,0,9.62c0,.12,0,.23,0,.37h7.2v-9c0-.9.23-1.12,1.15-1.12h6.49c.78,0,1,.26,1,1v9.05h7.2c0-.15,0-.28,0-.41v-12a5,5,0,0,1,0-.67.63.63,0,0,1,.66-.6.65.65,0,0,1,.7.55,2.41,2.41,0,0,1,.05.54V65.77c0,.72-.26,1-1,1H54.15c-.75,0-1-.23-1-1V56.66Z" transform="translate(-32.89 -33.54)" fill="#1d1d1b"/><path d="M60.38,36.41H56.47a4,4,0,0,1-.49,0A.69.69,0,0,1,55.86,35a1.61,1.61,0,0,1,.49-.06h4.47c.72,0,1,.27,1,1,0,1.49,0,3,0,4.47,0,.17,0,.38-.05.48a1.32,1.32,0,0,1-.64.52.6.6,0,0,1-.69-.5,2.56,2.56,0,0,1,0-.62C60.37,39,60.38,37.76,60.38,36.41Z" transform="translate(-32.89 -33.54)" fill="#1d1d1b"/></g></svg>