<svg id="Capa_1" xmlns="http://www.w3.org/2000/svg" xmlns:xlink="http://www.w3.org/1999/xlink" x="0px" y="0px"
	 width="40.667px" height="28.333px" viewBox="0 0 40.667 28.333" enable-background="new 0 0 40.667 28.333" xml:space="preserve">
<path fill="#FFFFFF00" stroke="#888" stroke-miterlimit="10" d="M32.966,15.265c-0.826,0-1.479,0-2.27,0
	c0,0.818,0.008,1.57-0.002,2.318c-0.008,0.678-0.244,1.209-1.012,1.236c-0.764,0.027-0.955-0.553-0.994-1.148
	c-0.049-0.756-0.012-1.518-0.012-2.363c-0.35-0.029-0.621-0.072-0.891-0.072c-2.766-0.006-5.531,0.012-8.293-0.016
	c-0.613-0.008-0.859,0.172-1.035,0.787c-0.867,3.045-2.833,5.002-5.992,5.545c-3.146,0.541-5.733-0.545-7.521-3.176
	c-1.692-2.49-1.819-5.202-0.366-7.844c1.476-2.683,3.864-4.016,6.918-3.878c2.961,0.134,5.26,1.553,6.42,4.317
	c0.537,1.278,1.189,1.585,2.498,1.566c5.049-0.071,10.1,0,15.15,0.018c0.951,0.004,1.568,0.491,1.523,1.303
	c-0.045,0.859-0.551,1.342-1.43,1.307c-0.621-0.023-0.762,0.281-0.734,0.818c0.035,0.6,0.086,1.209,0.027,1.803
	c-0.055,0.564-0.307,1.068-1.01,1.035c-0.67-0.031-0.939-0.49-0.967-1.082C32.939,16.955,32.966,16.166,32.966,15.265z
	 M11.133,9.472c-2.646,0-4.704,2.112-4.696,4.817c0.008,2.436,2.188,4.551,4.692,4.557c2.657,0.006,4.714-2.037,4.715-4.684
	C15.844,11.526,13.779,9.47,11.133,9.472z"/>
</svg>
