<?xml version="1.0" encoding="utf-8"?>
<!-- Generator: Adobe Illustrator 16.0.3, SVG Export Plug-In . SVG Version: 6.00 Build 0)  -->
<!DOCTYPE svg PUBLIC "-//W3C//DTD SVG 1.1//EN" "http://www.w3.org/Graphics/SVG/1.1/DTD/svg11.dtd">
<svg version="1.1" id="Capa_1" xmlns="http://www.w3.org/2000/svg" xmlns:xlink="http://www.w3.org/1999/xlink" x="0px" y="0px"
	 width="40.667px" height="33.125px" viewBox="0 0 40.667 33.125" enable-background="new 0 0 40.667 33.125" xml:space="preserve">
<path opacity="0.5" d="M11,17.084c0-3.896-0.001-7.791,0.001-11.686c0-0.588-0.003-1.18,0.2-1.75
	c0.281-0.788,0.923-1.315,1.791-1.618c0.326-0.114,0.723-0.109,1.087-0.112c1.863-0.015,3.727-0.022,5.59-0.019
	c1.707,0.003,3.412,0.021,5.119,0.039c0.535,0.006,1.068,0.021,1.59,0.174c1.121,0.329,1.789,1.084,1.816,2.144
	c0.059,2.204,0.037,4.408,0.039,6.613c0.004,2.758,0.004,5.516-0.004,8.274c-0.008,3.276-0.027,6.553-0.043,9.829
	c-0.002,0.408-0.082,0.799-0.289,1.176c-0.342,0.625-0.914,0.984-1.688,1.148c-0.73,0.155-1.475,0.133-2.213,0.145
	c-2.186,0.033-4.37,0.056-6.554,0.072c-1.163,0.009-2.326,0.006-3.488-0.012c-0.621-0.01-1.242-0.07-1.771-0.391
	c-0.502-0.301-0.847-0.717-1.063-1.199c-0.078-0.174-0.077-0.382-0.077-0.574c-0.004-4.085-0.002-8.17-0.002-12.254
	C11.026,17.084,11.014,17.084,11,17.084z M12.482,26.846c4.734-0.053,9.432-0.105,14.125-0.158c0-7.178,0-14.331,0-21.497
	c-4.725,0-9.43,0-14.125,0C12.482,12.408,12.482,19.617,12.482,26.846z M17.896,29.1c0,0.796,0.748,1.437,1.678,1.438
	c0.934,0,1.684-0.637,1.686-1.429c0-0.808-0.744-1.444-1.686-1.444C18.643,27.666,17.896,28.305,17.896,29.1z M21.821,3.223
	c-0.092,0-0.162,0-0.23,0c-1.302,0.006-2.604,0.015-3.905,0.021c-0.404,0.001-0.404-0.001-0.434,0.348
	c-0.002,0.02-0.004,0.04-0.005,0.06c-0.022,0.307-0.014,0.315,0.354,0.313c1.342-0.005,2.685-0.011,4.028-0.017
	c0.061,0,0.121-0.006,0.191-0.01C21.821,3.694,21.821,3.467,21.821,3.223z M12.844,3.595c0.001,0.173,0.163,0.311,0.366,0.312
	c0.201,0.001,0.369-0.14,0.371-0.312c0.002-0.179-0.167-0.321-0.378-0.317C12.996,3.283,12.843,3.417,12.844,3.595z"/>
</svg>
