<svg id="Capa_1" data-name="Capa 1" xmlns="http://www.w3.org/2000/svg" viewBox="0 0 33.92 33.92"><g opacity="0.5"><path d="M33.36,50.07s.53-.32,1.46-.78c.46-.23,1-.5,1.67-.77l1-.44a.83.83,0,0,1,.56,0,3.71,3.71,0,0,0,.58,0H62a5.52,5.52,0,0,0,.58,0,.83.83,0,0,1,.56.05l1,.45c.65.26,1.21.54,1.67.76.93.45,1.46.76,1.46.76s-.53.31-1.46.76c-.46.22-1,.49-1.67.76l-1,.44a.78.78,0,0,1-.56.06,3.71,3.71,0,0,0-.58,0H38.66a3.71,3.71,0,0,0-.58,0,.83.83,0,0,1-.56,0l-1-.44c-.64-.27-1.21-.55-1.67-.77C33.89,50.39,33.36,50.07,33.36,50.07Z" transform="translate(-33.36 -33.11)" fill="#1d1d1b"/><path d="M50.32,33.11s.33.53.78,1.46c.23.46.51,1,.77,1.67l.44,1a.83.83,0,0,1,0,.56,3.69,3.69,0,0,0,0,.58V61.73a5.52,5.52,0,0,0,0,.58.78.78,0,0,1-.05.56c-.16.36-.31.71-.44,1-.27.64-.55,1.21-.77,1.67-.45.93-.76,1.46-.76,1.46s-.31-.53-.75-1.46c-.23-.46-.5-1-.77-1.67l-.44-1a.73.73,0,0,1,0-.56,3.72,3.72,0,0,0,0-.58V38.41a2.79,2.79,0,0,0,0-.58.89.89,0,0,1,0-.56l.45-1c.26-.65.54-1.21.77-1.67C50,33.64,50.32,33.11,50.32,33.11Z" transform="translate(-33.36 -33.11)" fill="#1d1d1b"/></g></svg>