<?xml version="1.0" encoding="utf-8"?>
<!-- Generator: Adobe Illustrator 25.2.3, SVG Export Plug-In . SVG Version: 6.00 Build 0)  -->
<svg version="1.1" id="Capa_1" xmlns="http://www.w3.org/2000/svg" xmlns:xlink="http://www.w3.org/1999/xlink" x="0px" y="0px"
	 viewBox="0 0 24 24" style="enable-background:new 0 0 24 24;" xml:space="preserve">
<style type="text/css">
	.st0{fill:#8E0000;}
</style>
<path class="st0" d="M7,18c-1.7,0-3.1-0.6-4.2-1.8S1,13.7,1,12s0.6-3.1,1.8-4.3S5.3,6,7,6h10c1.7,0,3.1,0.6,4.2,1.8
	C22.4,8.9,23,10.3,23,12s-0.6,3.1-1.8,4.2C20.1,17.4,18.7,18,17,18H7z M7,16h10c1.1,0,2-0.4,2.8-1.2S21,13.1,21,12s-0.4-2-1.2-2.8
	S18.1,8,17,8H7C5.9,8,5,8.4,4.2,9.2S3,10.9,3,12s0.4,2,1.2,2.8S5.9,16,7,16z M7,15c0.8,0,1.5-0.3,2.1-0.9C9.7,13.5,10,12.8,10,12
	s-0.3-1.5-0.9-2.1C8.5,9.3,7.8,9,7,9S5.5,9.3,4.9,9.9S4,11.2,4,12s0.3,1.5,0.9,2.1C5.5,14.7,6.2,15,7,15z"/>
</svg>
