<svg id="Capa_1" data-name="Capa 1" xmlns="http://www.w3.org/2000/svg" viewBox="0 0 32.81 36.39"><path d="M37.79,53.17A10.18,10.18,0,0,1,42.55,51a4.14,4.14,0,0,1,2.47.4,11.09,11.09,0,0,0,10.58,0,4.74,4.74,0,0,1,3.71-.12,12.24,12.24,0,0,1,4,2.35,13,13,0,0,1,3.31,8.08,3.62,3.62,0,0,0,0,.57A3,3,0,0,1,65,65.72a23.17,23.17,0,0,1-6.1,2.19,39.78,39.78,0,0,1-11.25.82,30.57,30.57,0,0,1-10.78-2.37,10.44,10.44,0,0,1-1.62-.86,2.81,2.81,0,0,1-1.35-2.83,13.47,13.47,0,0,0,0-1.42,4.12,4.12,0,0,0,.13-.47A11.76,11.76,0,0,1,37.79,53.17ZM38.9,64a31.74,31.74,0,0,0,10.52,1.89,35.21,35.21,0,0,0,7.46-.57,23.84,23.84,0,0,0,6.33-2,.85.85,0,0,0,.56-.93,14,14,0,0,0-.3-2.24,7.52,7.52,0,0,0-4.71-6.08,2.22,2.22,0,0,0-2.4.14,14.05,14.05,0,0,1-12.1-.06,2.85,2.85,0,0,0-2.37-.11,8.21,8.21,0,0,0-1.5.78c-2.69,1.82-3.33,4.61-3.6,7.57a.51.51,0,0,0,.24.47A4.73,4.73,0,0,0,38.9,64Z" transform="translate(-33.87 -32.43)" fill="#1d1d1b" opacity="0.5"/><path d="M59.09,46.64a9.86,9.86,0,0,1-16.6,1.58l-.58-.71a11.33,11.33,0,0,1-1.45-5.86c.56-4.46,2.86-7.52,7.22-8.83a9.81,9.81,0,0,1,12.25,7.49,19.5,19.5,0,0,1,.15,2.75A10.17,10.17,0,0,1,59.09,46.64ZM55.3,37.53A6.9,6.9,0,1,0,51.72,49,6.88,6.88,0,0,0,55.3,37.53Z" transform="translate(-33.87 -32.43)" fill="#1d1d1b" opacity="0.5"/></svg>