<?xml version="1.0" encoding="utf-8"?>
<!-- Generator: Adobe Illustrator 16.0.3, SVG Export Plug-In . SVG Version: 6.00 Build 0)  -->
<!DOCTYPE svg PUBLIC "-//W3C//DTD SVG 1.1//EN" "http://www.w3.org/Graphics/SVG/1.1/DTD/svg11.dtd">
<svg version="1.1" id="Capa_1" xmlns="http://www.w3.org/2000/svg" xmlns:xlink="http://www.w3.org/1999/xlink" x="0px" y="0px"
	 width="40.667px" height="33.125px" viewBox="0 0 40.667 33.125" enable-background="new 0 0 40.667 33.125" xml:space="preserve">
<path opacity="0.5" d="M10.318,18.859c1.141-0.867,2.357-1.573,3.813-1.773c0.697-0.096,1.355-0.001,1.982,0.318
	c2.828,1.439,5.662,1.439,8.49,0.004c0.982-0.5,1.969-0.397,2.975-0.095c1.225,0.369,2.229,1.105,3.207,1.888
	c1.723,1.818,2.438,4.051,2.66,6.484c-0.002,0.15-0.029,0.307-0.004,0.453c0.213,1.254-0.193,2.158-1.307,2.781
	c-1.529,0.857-3.189,1.369-4.891,1.762c-2.975,0.688-6,0.828-9.029,0.658c-2.975-0.166-5.893-0.691-8.645-1.908
	c-0.449-0.197-0.896-0.414-1.305-0.684c-0.809-0.531-1.184-1.289-1.076-2.273c0.041-0.375,0.02-0.758,0.025-1.137
	c0.037-0.127,0.09-0.252,0.107-0.381C7.625,22.583,8.49,20.485,10.318,18.859z M11.205,27.562c2.713,1.064,5.561,1.4,8.439,1.518
	c2.01,0.08,4.01-0.117,5.988-0.463c1.754-0.305,3.459-0.793,5.074-1.57c0.34-0.162,0.465-0.363,0.453-0.744
	c-0.02-0.609-0.127-1.205-0.242-1.797c-0.436-2.262-1.553-4.004-3.783-4.876c-0.658-0.259-1.311-0.387-1.926,0.11
	c-3.242,1.414-6.49,1.459-9.705-0.053c-0.662-0.311-1.252-0.328-1.9-0.082c-0.428,0.162-0.83,0.371-1.205,0.625
	c-2.152,1.457-2.666,3.693-2.887,6.07c-0.016,0.172,0.064,0.273,0.193,0.377C10.162,27.048,10.611,27.427,11.205,27.562z"/>
<path opacity="0.5" d="M27.402,13.614c-1.205,2.251-3.018,3.742-5.553,4.195c-3.143,0.562-5.74-0.447-7.76-2.929
	c-0.154-0.19-0.314-0.376-0.471-0.563c-0.75-1.479-1.256-3.019-1.162-4.707c0.449-3.573,2.295-6.028,5.795-7.084
	c4.307-1.3,8.977,1.588,9.826,6.012c0.141,0.736,0.078,1.471,0.121,2.206C28.134,11.757,27.824,12.701,27.402,13.614z M24.365,6.305
	c-1.904-1.98-4.846-2.319-7.086-0.814c-2.295,1.541-3.086,4.36-1.951,6.958c1.055,2.274,3.66,3.652,6.162,3.079
	c2.008-0.461,3.445-1.642,4.102-3.618C26.283,9.826,25.904,7.927,24.365,6.305z"/>
</svg>
